<svg xmlns="http://www.w3.org/2000/svg" viewBox="0 0 10.74 10.74"><defs><style>.cls-1{fill:#fff;}</style></defs><title>Fichier 9</title><g id="Calque_2" data-name="Calque 2"><g id="Calque_1-2" data-name="Calque 1"><path class="cls-1" d="M7.78,0H3A3,3,0,0,0,0,3V7.78a3,3,0,0,0,3,3H7.78a3,3,0,0,0,3-3V3A3,3,0,0,0,7.78,0Zm2,7.78a2,2,0,0,1-2,2H3a2,2,0,0,1-2-2V3A2,2,0,0,1,3,1H7.78a2,2,0,0,1,2,2V7.78Z"/><path class="cls-1" d="M5.37,2.6A2.77,2.77,0,1,0,8.14,5.37,2.77,2.77,0,0,0,5.37,2.6Zm0,4.58A1.81,1.81,0,1,1,7.19,5.37,1.82,1.82,0,0,1,5.37,7.19Z"/><path class="cls-1" d="M8.25,1.79a.7.7,0,1,0,.49.2A.7.7,0,0,0,8.25,1.79Z"/></g></g></svg>