<svg xmlns="http://www.w3.org/2000/svg" viewBox="0 0 9.26 11.9"><defs><style>.cls-1{fill:#fff;}</style></defs><title>Fichier 8</title><g id="Calque_2" data-name="Calque 2"><g id="Calque_1-2" data-name="Calque 1"><path class="cls-1" d="M5.4,8.63a3.24,3.24,0,0,1-1.6-.76c-.31,1.64-.69,3.21-1.82,4-.35-2.48.51-4.34.91-6.31C2.21,4.44,3,2.13,4.41,2.7,6.18,3.4,2.88,7,5.1,7.42s3.26-4,1.82-5.48c-2.07-2.1-6,0-5.55,3,.12.74.88,1,.3,2C.35,6.59,0,5.54,0,4.15A4.47,4.47,0,0,1,4,0C6.53-.24,8.88,1,9.21,3.31,9.57,6,8.08,8.84,5.4,8.63Z"/></g></g></svg>