<svg xmlns="http://www.w3.org/2000/svg" viewBox="0 0 9.92 8.06"><defs><style>.cls-1{fill:#fff;}</style></defs><title>Fichier 6</title><g id="Calque_2" data-name="Calque 2"><g id="Calque_1-2" data-name="Calque 1"><path class="cls-1" d="M9.92,1a4.06,4.06,0,0,1-1.17.32A2,2,0,0,0,9.65.15,4.08,4.08,0,0,1,8.36.64,2,2,0,0,0,4.89,2.5,5.78,5.78,0,0,1,.69.37a2,2,0,0,0,.63,2.72A2,2,0,0,1,.4,2.84v0A2,2,0,0,0,2,4.86a2,2,0,0,1-.92,0A2,2,0,0,0,3,6.31a4.08,4.08,0,0,1-2.53.87L0,7.15a5.76,5.76,0,0,0,3.12.91A5.75,5.75,0,0,0,8.91,2.27c0-.09,0-.18,0-.26A4.13,4.13,0,0,0,9.92,1Z"/></g></g></svg>