<?xml version="1.0" encoding="utf-8"?>
<!-- Generator: Adobe Illustrator 21.1.0, SVG Export Plug-In . SVG Version: 6.00 Build 0)  -->
<svg version="1.1" id="Calque_1" xmlns="http://www.w3.org/2000/svg" xmlns:xlink="http://www.w3.org/1999/xlink" x="0px" y="0px"
	 viewBox="0 0 970 480" style="enable-background:new 0 0 970 480;" xml:space="preserve">
<style type="text/css">
	.st0{opacity:0.3;fill:#FFFFFF;}
</style>
<path class="st0" d="M962,11.7L970,0h-42.6l0,0h-97.8h-0.8v2.3h-1.5V0h0.8h-3H0c0,0,0.1,160.1,0.2,204.3c14,5.8,23.9,19.6,23.9,35.7
	s-9.9,29.9-23.9,35.7C0.1,322,0,480,0,480h828.1v-2.3h1.5v2.3h-0.8c1.1,0,66.9,0,98.5,0l0,0H962l8-11.7l-8-11.7l8-11.7l-8-11.7
	l8-11.7l-8-11.7l8-11.7l-8-11.7l8-11.7l-8-11.7l8-11.7l-8-11.7l8-11.7l-8-11.7l8-11.7l-8-11.7l8-11.7l-8-11.7l8-11.7l-8-11.7l8-11.7
	l-8-11.7l8-11.7l-8-11.7l8-11.7l-8-11.7l8-11.7l-8-11.7l8-11.7l-8-11.7l8-11.7l-8-11.7l8-11.7l-8-11.7l8-11.7l-8-11.7l8-11.7
	l-8-11.7l8-11.7L962,11.7z M827.3,6h1.5v4.5h-1.5V6z M827.3,14.3h1.5v4.5h-1.5V14.3z M827.3,22.6h1.5v4.5h-1.5V22.6z M827.4,30.9
	h1.5v4.5h-1.5V30.9z M827.4,39.1h1.5v4.5h-1.5V39.1z M827.4,47.4h1.5v4.5h-1.5V47.4z M827.4,55.7h1.5v4.5h-1.5V55.7z M827.4,64h1.5
	v4.5h-1.5V64z M827.4,72.2h1.5v4.5h-1.5V72.2z M827.4,80.5h1.5V85h-1.5V80.5z M827.4,88.8h1.5v4.5h-1.5V88.8z M827.5,97.1h1.5v4.5
	h-1.5V97.1z M827.5,105.3h1.5v4.5h-1.5V105.3z M827.5,113.6h1.5v4.5h-1.5V113.6z M827.5,121.9h1.5v4.5h-1.5V121.9z M827.5,130.2h1.5
	v4.5h-1.5V130.2z M827.5,138.4h1.5v4.5h-1.5V138.4z M827.5,146.7h1.5v4.5h-1.5V146.7z M827.5,155h1.5v4.5h-1.5V155z M827.6,163.3
	h1.5v4.5h-1.5V163.3z M827.6,171.5h1.5v4.5h-1.5V171.5z M827.6,179.8h1.5v4.5h-1.5V179.8z M827.6,188.1h1.5v4.5h-1.5V188.1z
	 M827.6,196.4h1.5v4.5h-1.5V196.4z M827.6,204.6h1.5v4.5h-1.5V204.6z M827.6,212.9h1.5v4.5h-1.5V212.9z M827.7,221.2h1.5v4.5h-1.5
	V221.2z M827.7,229.5h1.5v4.5h-1.5V229.5z M827.7,237.7h1.5v4.5h-1.5V237.7z M827.7,246h1.5v4.5h-1.5V246z M827.7,254.3h1.5v4.5
	h-1.5V254.3z M827.7,262.6h1.5v4.5h-1.5V262.6z M827.7,270.8h1.5v4.5h-1.5V270.8z M827.7,279.1h1.5v4.5h-1.5V279.1z M827.8,287.4
	h1.5v4.5h-1.5V287.4z M827.8,295.7h1.5v4.5h-1.5V295.7z M827.8,303.9h1.5v4.5h-1.5V303.9z M827.8,312.2h1.5v4.5h-1.5V312.2z
	 M827.8,320.5h1.5v4.5h-1.5V320.5z M827.8,328.8h1.5v4.5h-1.5V328.8z M827.8,337.1h1.5v4.5h-1.5V337.1z M827.8,345.3h1.5v4.5h-1.5
	V345.3z M827.9,353.6h1.5v4.5h-1.5V353.6z M827.9,361.9h1.5v4.5h-1.5V361.9z M827.9,370.2h1.5v4.5h-1.5V370.2z M827.9,378.4h1.5v4.5
	h-1.5V378.4z M827.9,386.7h1.5v4.5h-1.5V386.7z M827.9,395h1.5v4.5h-1.5V395z M827.9,403.3h1.5v4.5h-1.5V403.3z M828,411.5h1.5v4.5
	H828V411.5z M828,419.8h1.5v4.5H828V419.8z M828,428.1h1.5v4.5H828V428.1z M828,436.4h1.5v4.5H828V436.4z M828,444.6h1.5v4.5H828
	V444.6z M828,452.9h1.5v4.5H828V452.9z M828,461.2h1.5v4.5H828V461.2z M828.1,474v-4.5h1.5v4.5H828.1z"/>
</svg>
