<?xml version="1.0" encoding="utf-8"?>
<!-- Generator: Adobe Illustrator 21.1.0, SVG Export Plug-In . SVG Version: 6.00 Build 0)  -->
<svg version="1.1" id="Calque_1" xmlns="http://www.w3.org/2000/svg" xmlns:xlink="http://www.w3.org/1999/xlink" x="0px" y="0px"
	 viewBox="0 0 100 100" style="enable-background:new 0 0 100 100;" xml:space="preserve">
<style type="text/css">
	.st0{fill:#FFFFFF;}
</style>
<g>
	<path class="st0" d="M91.7,16.7c-4.6,0-8.4-3.7-8.4-8.3s3.7-8.3,8.3-8.3h0.1c4.6,0,8.3,3.7,8.3,8.3S96.3,16.7,91.7,16.7z M50,16.7
		c-4.6,0-8.4-3.7-8.4-8.3s3.7-8.3,8.3-8.3H50c4.6,0,8.3,3.7,8.3,8.3S54.6,16.7,50,16.7z M8.4,16.7C3.8,16.7,0,13,0,8.4
		s3.7-8.3,8.3-8.3h0.1c4.6,0,8.3,3.7,8.3,8.3S13,16.7,8.4,16.7z"/>
	<path class="st0" d="M91.7,99.9c-4.6,0-8.4-3.7-8.4-8.3c0-4.6,3.7-8.3,8.3-8.3h0.1c4.6,0,8.3,3.7,8.3,8.3
		C100,96.2,96.3,99.9,91.7,99.9z M50,99.9c-4.6,0-8.4-3.7-8.4-8.3c0-4.6,3.7-8.3,8.3-8.3H50c4.6,0,8.3,3.7,8.3,8.3
		C58.3,96.2,54.6,99.9,50,99.9z M8.4,99.9c-4.6,0-8.4-3.7-8.4-8.3c0-4.6,3.7-8.3,8.3-8.3h0.1c4.6,0,8.3,3.7,8.3,8.3
		C16.7,96.2,13,99.9,8.4,99.9z"/>
	<path class="st0" d="M100,49.9c0,4.6-3.7,8.4-8.3,8.4c-4.6,0-8.3-3.7-8.3-8.3v-0.1c0-4.6,3.7-8.3,8.3-8.3
		C96.3,41.6,100,45.3,100,49.9z"/>
	<path class="st0" d="M16.6,49.9c0,4.6-3.7,8.4-8.3,8.4S0,54.6,0,50v-0.1c0-4.6,3.7-8.3,8.3-8.3S16.6,45.3,16.6,49.9z"/>
</g>
</svg>
