<?xml version="1.0" encoding="utf-8"?>
<!-- Generator: Adobe Illustrator 21.1.0, SVG Export Plug-In . SVG Version: 6.00 Build 0)  -->
<svg version="1.1" id="Calque_1" xmlns="http://www.w3.org/2000/svg" xmlns:xlink="http://www.w3.org/1999/xlink" x="0px" y="0px"
	 viewBox="0 0 64 33" style="enable-background:new 0 0 64 33;" xml:space="preserve">
<style type="text/css">
	.st0{fill:#FFFFFF;}
</style>
<g>
	<path class="st0" d="M61.9,1.6L64,0H0v11.7c2.1,0.5,3.7,2.4,3.7,4.8S2.1,20.7,0,21.3V33h64l-2-2.1l2-1.9L61.9,27l2.1-2.1l-2.1-2.1
		l2.1-2.1l-2.1-2.1l2.1-2.1l-2.1-2.1l2.1-2.1l-2.1-2.1L64,8l-2.1-2.1L64,3.7L61.9,1.6z M11.2,5.9h21.1v4.7H11.2V5.9z M34.6,22.4
		H11.2V20h23.4V22.4z M34.6,17.7H11.2v-2.4h23.4V17.7z M55,31.8h-2.3v-2.4H55V31.8z M55,27.1h-2.3v-2.4H55V27.1z M55,22.4h-2.3V20
		H55V22.4z M55,17.7h-2.3v-2.4H55V17.7z M55,13h-2.3v-2.4H55V13z M55,8.2h-2.3V5.9H55V8.2z M55,3.5h-2.3V1.2H55V3.5z"/>
</g>
</svg>
