<?xml version="1.0" encoding="utf-8"?>
<!-- Generator: Adobe Illustrator 21.1.0, SVG Export Plug-In . SVG Version: 6.00 Build 0)  -->
<svg version="1.1" id="Calque_1" xmlns="http://www.w3.org/2000/svg" xmlns:xlink="http://www.w3.org/1999/xlink" x="0px" y="0px"
	 viewBox="0 0 25 25" style="enable-background:new 0 0 25 25;" xml:space="preserve">
<style type="text/css">
	.st0{fill:#FFFFFF;}
</style>
<g>
	<g>
		<path class="st0" d="M12.5,24.9c-6.8,0-12.4-5.6-12.4-12.4S5.7,0.1,12.5,0.1s12.4,5.6,12.4,12.4S19.3,24.9,12.5,24.9z M12.5,1.1
			C6.2,1.1,1.1,6.2,1.1,12.5c0,6.3,5.1,11.4,11.4,11.4c6.3,0,11.4-5.1,11.4-11.4C23.9,6.2,18.8,1.1,12.5,1.1z"/>
	</g>
	<g>
		<g>
			<path class="st0" d="M13.4,14.3h-1.6v-0.8c0-0.4,0-0.6,0.1-0.8c0.1-0.2,0.3-0.4,0.6-0.7l1-1c0.2-0.2,0.3-0.5,0.3-0.9
				s-0.1-0.6-0.3-0.9C13.3,9,13,8.9,12.7,8.9c-0.4,0-0.6,0.1-0.9,0.3c-0.2,0.2-0.4,0.5-0.4,0.9H9.7c0.1-0.8,0.4-1.5,1-1.9
				c0.6-0.5,1.2-0.7,2.1-0.7c0.8,0,1.5,0.2,2,0.7c0.5,0.4,0.8,1.1,0.8,1.9c0,0.6-0.2,1-0.5,1.4c-0.2,0.2-0.3,0.4-0.4,0.5
				c-0.1,0.1-0.2,0.2-0.4,0.4c-0.2,0.1-0.3,0.3-0.4,0.4c-0.1,0.1-0.2,0.2-0.3,0.3c-0.2,0.2-0.3,0.5-0.3,0.9V14.3z M12.6,17.4
				c-0.3,0-0.5-0.1-0.8-0.3c-0.2-0.2-0.3-0.4-0.3-0.7c0-0.3,0.1-0.5,0.3-0.7c0.2-0.2,0.5-0.3,0.7-0.3s0.5,0.1,0.8,0.3
				c0.2,0.2,0.3,0.4,0.3,0.7c0,0.3-0.1,0.5-0.3,0.7C13.2,17.3,12.9,17.4,12.6,17.4z"/>
		</g>
	</g>
</g>
</svg>
