<?xml version="1.0" encoding="utf-8"?>
<!-- Generator: Adobe Illustrator 21.1.0, SVG Export Plug-In . SVG Version: 6.00 Build 0)  -->
<svg version="1.1" id="Calque_1" xmlns="http://www.w3.org/2000/svg" xmlns:xlink="http://www.w3.org/1999/xlink" x="0px" y="0px"
	 viewBox="0 0 612.2 202" style="enable-background:new 0 0 612.2 202;" xml:space="preserve">
<style type="text/css">
	.st0{opacity:0.8;}
	.st1{fill:#FFFFFF;}
</style>
<g>
	<g class="st0">
		<g>
			<path class="st1" d="M1,190.3h6.7v1.6H3v2.9h3.8v1.5H3v3.1h5v1.6H1V190.3z"/>
			<path class="st1" d="M20.8,195.5l-3.2-5.2h2.3l2.3,3.8l2.3-3.8h2.1l-3.2,5.2l3.4,5.6h-2.3l-2.5-4.2l-2.5,4.2h-2L20.8,195.5z"/>
			<path class="st1" d="M36.7,190.3h3.5c2.4,0,4,1.1,4,3.3v0.1c0,2.3-1.6,3.3-3.9,3.3h-1.5v4.1h-2V190.3z M40.2,195.5
				c1.3,0,2-0.6,2-1.8v-0.1c0-1.3-0.8-1.8-2-1.8h-1.5v3.7H40.2z"/>
			<path class="st1" d="M54.1,190.3h2v9.1h4.6v1.6h-6.6V190.3z"/>
			<path class="st1" d="M69.7,195.7v-0.1c0-3.1,2.3-5.5,5.4-5.5c3.2,0,5.4,2.3,5.4,5.4v0.1c0,3.1-2.1,5.5-5.4,5.5
				C71.9,201.2,69.7,198.8,69.7,195.7z M78.5,195.7v-0.1c0-2.2-1.2-3.8-3.3-3.8c-2.1,0-3.3,1.5-3.3,3.9v0.1c0,2.3,1.4,3.9,3.4,3.9
				C77.2,199.6,78.5,198,78.5,195.7z"/>
			<path class="st1" d="M90.8,190.3h3.6c2.4,0,4,1,4,3.2v0.1c0,1.7-1.1,2.5-2.4,2.9l3,4.6h-2.2l-2.8-4.3h-1.3v4.3h-2V190.3z
				 M94.4,195.2c1.3,0,2-0.6,2-1.7v-0.1c0-1.2-0.8-1.7-2-1.7h-1.6v3.4H94.4z"/>
			<path class="st1" d="M108.9,190.3h6.7v1.6h-4.7v2.9h3.8v1.5h-3.8v3.1h5v1.6h-7V190.3z"/>
			<path class="st1" d="M125,200.7l5.5-8.9h-4.9v-1.6h7.7v0.3l-5.4,8.9h5.2v1.6H125V200.7z"/>
			<path class="st1" d="M155.1,190.3h2v9.1h4.6v1.6h-6.6V190.3z"/>
			<path class="st1" d="M171.6,190.3h6.7v1.6h-4.7v2.9h3.8v1.5h-3.8v3.1h5v1.6h-7V190.3z"/>
			<path class="st1" d="M199.8,200.8v-1.6c0.4,0.2,0.8,0.3,1.4,0.3c1,0,1.6-0.5,1.6-1.8v-7.4h2v7.5c0,2.3-1.3,3.4-3.3,3.4
				C200.6,201.1,200.1,201,199.8,200.8z"/>
			<path class="st1" d="M217.9,190.3h2.6l3.5,10.7H222l-0.9-2.7h-4.1l-0.8,2.7h-1.9L217.9,190.3z M217.5,196.9h3.2l-1.6-5
				L217.5,196.9z"/>
			<path class="st1" d="M234,190.3h3.6c2.4,0,4,1,4,3.2v0.1c0,1.7-1.1,2.5-2.4,2.9l3,4.6h-2.2l-2.8-4.3H236v4.3h-2V190.3z
				 M237.6,195.2c1.3,0,2-0.6,2-1.7v-0.1c0-1.2-0.8-1.7-2-1.7H236v3.4H237.6z"/>
			<path class="st1" d="M252.1,190.3h3.3c3.7,0,5.6,2.1,5.6,5.3v0.1c0,3.1-1.8,5.3-5.6,5.3h-3.2V190.3z M255.3,199.4
				c2.4,0,3.6-1.4,3.6-3.8v-0.1c0-2.3-1.1-3.7-3.6-3.7h-1.2v7.6H255.3z"/>
			<path class="st1" d="M271.1,190.3h2V201h-2V190.3z"/>
			<path class="st1" d="M283.9,190.3h2.4l4.5,7.8v-7.8h1.8V201h-2.1l-4.8-8.2v8.2h-1.8V190.3z"/>
			<path class="st1" d="M315.2,190.3h2.7l2.8,7.3l2.8-7.3h2.6V201h-2v-8.1l-3.2,8.1h-0.6l-3.3-8.1v8.1h-1.8V190.3z"/>
			<path class="st1" d="M336.7,196.9v-6.7h2v6.5c0,2,0.6,2.8,2.2,2.8c1.5,0,2.3-0.7,2.3-2.9v-6.4h2v6.5c0,2.8-1.5,4.4-4.4,4.4
				C338.3,201.2,336.7,199.7,336.7,196.9z"/>
			<path class="st1" d="M355.3,197.7h1.9c0.1,1.1,0.6,2,2.4,2c1.2,0,2-0.7,2-1.7s-0.5-1.4-2.2-1.7c-2.6-0.3-3.8-1.1-3.8-3.1
				c0-1.8,1.5-3.1,3.7-3.1c2.3,0,3.7,1.1,3.9,3.1h-1.8c-0.2-1.1-0.8-1.6-2.1-1.6c-1.2,0-1.8,0.6-1.8,1.4c0,0.9,0.4,1.3,2.2,1.6
				c2.5,0.3,3.8,1.1,3.8,3.2c0,1.9-1.6,3.3-3.9,3.3C356.7,201.2,355.4,199.7,355.3,197.7z"/>
			<path class="st1" d="M373.8,190.3h2V201h-2V190.3z"/>
			<path class="st1" d="M386.1,195.7v-0.1c0-3.2,2.2-5.5,5.2-5.5c2.5,0,4.4,1.2,4.6,3.8h-2c-0.2-1.4-1-2.2-2.6-2.2
				c-1.9,0-3.1,1.5-3.1,3.9v0.1c0,2.4,1.2,3.8,3.1,3.8c1.5,0,2.5-0.8,2.7-2.3h2c-0.3,2.6-2.1,3.9-4.7,3.9
				C387.9,201.2,386.1,199,386.1,195.7z"/>
			<path class="st1" d="M408.5,190.3h2.6l3.5,10.7h-2.1l-0.9-2.7h-4.1l-0.8,2.7h-1.9L408.5,190.3z M408.1,196.9h3.2l-1.6-5
				L408.1,196.9z"/>
			<path class="st1" d="M424.6,190.3h2v9.1h4.6v1.6h-6.6V190.3z"/>
			<path class="st1" d="M452.9,190.3h3.3c3.7,0,5.6,2.1,5.6,5.3v0.1c0,3.1-1.8,5.3-5.6,5.3h-3.2V190.3z M456.1,199.4
				c2.4,0,3.6-1.4,3.6-3.8v-0.1c0-2.3-1.1-3.7-3.6-3.7h-1.2v7.6H456.1z"/>
			<path class="st1" d="M471.1,193.6l1.3-3.5l1.6,0.6l-1.9,3.3L471.1,193.6z"/>
			<path class="st1" d="M485,190.3h2.6l3.5,10.7h-2.1l-0.9-2.7h-4.1l-0.8,2.7h-1.9L485,190.3z M484.6,196.9h3.2l-1.6-5L484.6,196.9z
				"/>
			<path class="st1" d="M500.2,197.7h1.9c0.1,1.1,0.6,2,2.4,2c1.2,0,2-0.7,2-1.7s-0.5-1.4-2.2-1.7c-2.6-0.3-3.8-1.1-3.8-3.1
				c0-1.8,1.5-3.1,3.7-3.1c2.3,0,3.7,1.1,3.9,3.1h-1.8c-0.2-1.1-0.8-1.6-2.1-1.6c-1.2,0-1.8,0.6-1.8,1.4c0,0.9,0.4,1.3,2.2,1.6
				c2.5,0.3,3.8,1.1,3.8,3.2c0,1.9-1.6,3.3-3.9,3.3C501.5,201.2,500.3,199.7,500.2,197.7z"/>
			<path class="st1" d="M520.5,191.9h-3v-1.6h8v1.6h-3v9.2h-2V191.9z"/>
			<path class="st1" d="M535.3,190.3h6.7v1.6h-4.7v2.9h3.8v1.5h-3.8v3.1h5v1.6h-7V190.3z"/>
			<path class="st1" d="M552.4,190.3h3.6c2.4,0,4,1,4,3.2v0.1c0,1.7-1.1,2.5-2.4,2.9l3,4.6h-2.2l-2.8-4.3h-1.3v4.3h-2V190.3z
				 M556,195.2c1.3,0,2-0.6,2-1.7v-0.1c0-1.2-0.8-1.7-2-1.7h-1.6v3.4H556z"/>
			<path class="st1" d="M570.5,190.3h2V201h-2V190.3z"/>
			<path class="st1" d="M582.8,195.7v-0.1c0-3.1,2.3-5.5,5.4-5.5c3.2,0,5.4,2.3,5.4,5.4v0.1c0,3.1-2.1,5.5-5.4,5.5
				C584.9,201.2,582.8,198.8,582.8,195.7z M591.5,195.7v-0.1c0-2.2-1.2-3.8-3.3-3.8c-2.1,0-3.3,1.5-3.3,3.9v0.1
				c0,2.3,1.4,3.9,3.4,3.9C590.3,199.6,591.5,198,591.5,195.7z"/>
			<path class="st1" d="M603,197.7h1.9c0.1,1.1,0.6,2,2.4,2c1.2,0,2-0.7,2-1.7s-0.5-1.4-2.2-1.7c-2.6-0.3-3.8-1.1-3.8-3.1
				c0-1.8,1.5-3.1,3.7-3.1c2.3,0,3.7,1.1,3.9,3.1h-1.8c-0.2-1.1-0.8-1.6-2.1-1.6c-1.2,0-1.8,0.6-1.8,1.4c0,0.9,0.4,1.3,2.2,1.6
				c2.5,0.3,3.8,1.1,3.8,3.2c0,1.9-1.6,3.3-3.9,3.3C604.4,201.2,603.1,199.7,603,197.7z"/>
		</g>
	</g>
	<g>
		<g>
			<path class="st1" d="M1.1,25.8v27.8h10.7c2.1,0,4-0.2,5.7-0.5V26.2c-1.7-0.3-3.5-0.4-5.6-0.4H1.1z"/>
			<path class="st1" d="M56,68.7C68.2,64,76.9,54.7,76.9,38.2v-0.6c0-24.4-16.8-36.7-47.1-36.7H13.4c30.3,0,47.1,12.3,47.1,36.7v0.6
				c0,16.5-8.7,25.7-20.9,30.4l27.7,47.9h16.4L56,68.7z"/>
			<polygon class="st1" points="8.9,75.1 1.1,75.1 1.1,116.6 17.5,116.6 17.5,90.4 			"/>
		</g>
		<g>
			<rect x="377.7" y="0.8" class="st1" width="16.4" height="25.6"/>
			<rect x="330.8" y="70" class="st1" width="16.4" height="21"/>
			<rect x="368.2" y="46.3" class="st1" width="16.4" height="23.6"/>
			<rect x="330.8" y="26.4" class="st1" width="16.4" height="19.9"/>
		</g>
		<polygon class="st1" points="431.3,72.2 447.7,72.2 452.3,56.5 444.1,27.7 		"/>
		<polygon class="st1" points="418.7,116.6 435.1,116.6 441.2,95 424.8,95 		"/>
		<g>
			<polygon class="st1" points="238.2,53.8 222.9,0.8 206.5,0.8 230,82.1 			"/>
			<polygon class="st1" points="284.7,0.8 246.8,116.6 263.2,116.6 301.1,0.8 			"/>
		</g>
		<g>
			<g>
				<rect x="113.9" y="70" class="st1" width="16.4" height="21"/>
				<rect x="113.9" y="26.4" class="st1" width="16.4" height="19.9"/>
				<rect x="151.3" y="46.3" class="st1" width="16.4" height="23.6"/>
				<rect x="163.4" y="91" class="st1" width="16.4" height="25.6"/>
			</g>
			<polygon class="st1" points="177.3,20.6 170.7,0.8 160.8,0.8 160.8,26.4 177.3,26.4 			"/>
		</g>
		<polygon class="st1" points="380.3,91 380.3,116.6 387.8,116.6 396,91 		"/>
		<g>
			<rect x="551.1" y="0.8" class="st1" width="16.4" height="90"/>
			<rect x="594.8" y="90.8" class="st1" width="16.4" height="25.7"/>
		</g>
		<polygon class="st1" points="484.1,0.8 467.7,0.8 504.5,116.6 517.7,116.6 517.7,106.6 		"/>
	</g>
</g>
</svg>
