<?xml version="1.0" encoding="utf-8"?>
<!-- Generator: Adobe Illustrator 21.1.0, SVG Export Plug-In . SVG Version: 6.00 Build 0)  -->
<svg version="1.1" id="Calque_1" xmlns="http://www.w3.org/2000/svg" xmlns:xlink="http://www.w3.org/1999/xlink" x="0px" y="0px"
	 viewBox="0 0 63 76" style="enable-background:new 0 0 63 76;" xml:space="preserve">
<style type="text/css">
	.st0{fill:#FFFFFF;}
</style>
<g>
	<g>
		<path class="st0" d="M46.6,55.4h1.2v0h5v0h0.7v-55h-6.9V55.4z M48.9,53V2.8h2.1V53H48.9z"/>
		<path class="st0" d="M0.5,55.4h2.4V29.2H5v26.2h2.4l0-55H0.5V55.4z M5,2.8v23.9H2.9V2.8H5z"/>
		<path class="st0" d="M38.9,29.7l0.1,0h0.7l0-29.2h-6.9v55h2.4V29.7h1l1.5,25.7h2.4l-1.5-25.7H38.9z M37.3,2.8v24.5h-2.1V2.8H37.3z
			"/>
		<polyline class="st0" points="16.5,5 9.6,5 9.6,31.6 14.1,31.6 14.1,53.1 11.9,53.1 11.9,34.1 9.5,34.1 9.5,55.4 9.6,55.4 
			9.6,55.5 16.5,55.5 16.5,29.2 12,29.2 12,7.4 14,7.4 14,26 16.4,26 		"/>
		<polygon class="st0" points="58,26.7 58,2.8 60.1,2.8 60.1,24.3 62.5,24.3 62.5,2.8 62.5,2.8 62.5,0.4 55.6,0.4 55.6,29.1 
			60.1,29.1 60.1,53.1 57.9,53.1 57.9,31.6 55.6,31.6 55.6,55.4 55.6,55.4 55.6,55.5 62.5,55.5 62.5,26.7 		"/>
		<polygon class="st0" points="9.6,2.6 18.8,2.6 18.8,55.3 18.8,55.4 21.2,55.4 21.2,2.6 30.4,2.6 30.4,0.3 9.6,0.3 		"/>
		<polygon class="st0" points="23.5,5.1 23.5,55.3 25.3,55.3 25.3,55.3 30.3,55.3 30.3,54.3 30.3,52.9 30.3,32.4 28,32.4 28,52.9 
			25.8,52.9 25.8,29.9 30.3,29.9 30.3,27.5 25.8,27.5 25.8,7.5 28,7.5 28,25 30.3,25 30.3,7.5 30.3,6.9 30.3,5.1 		"/>
		<g>
			<rect x="42" y="4.8" class="st0" width="2.4" height="50.6"/>
			<rect x="42" y="0.4" class="st0" width="2.4" height="2.4"/>
		</g>
	</g>
	<g>
		<g>
			<path class="st0" d="M12.5,68.5l-0.2-0.7h-1.1L11,68.5H9.7l1.3-4.3h1.6l1.3,4.3H12.5z M11.8,65.6L11.8,65.6l-0.3,1.1h0.6
				L11.8,65.6z"/>
			<path class="st0" d="M18.7,65.6c-0.3-0.3-0.7-0.4-1-0.4c-0.2,0-0.3,0.1-0.3,0.2c0,0.1,0,0.2,0.2,0.3l0.7,0.2c0.7,0.2,1,0.7,1,1.3
				c0,0.8-0.7,1.4-1.7,1.4c-0.8,0-1.5-0.3-1.9-0.7l0.7-0.9c0.3,0.3,0.7,0.5,1.1,0.5c0.2,0,0.4-0.1,0.4-0.3c0-0.1,0-0.2-0.4-0.3
				l-0.6-0.2c-0.7-0.2-1-0.7-1-1.3c0-0.7,0.6-1.3,1.6-1.3c0.6,0,1.2,0.2,1.7,0.6L18.7,65.6z"/>
			<path class="st0" d="M25.4,65.3h-1.2v3.2h-1.3v-3.2h-1.2v-1.1h3.7V65.3z"/>
			<path class="st0" d="M31.3,65.3H29v0.5h1.1v1.1H29v0.5h2.2v1.1h-3.5v-4.3h3.5V65.3z"/>
			<path class="st0" d="M35.5,67.1h-0.4v1.4h-1.3v-4.3h2c1.1,0,1.7,0.7,1.7,1.4c0,0.6-0.3,1-0.8,1.3l1,1.6h-1.4L35.5,67.1z M35.7,66
				c0.4,0,0.5-0.2,0.5-0.4c0-0.2-0.1-0.4-0.5-0.4h-0.6V66H35.7z"/>
			<path class="st0" d="M40.1,64.2h1.3v4.3h-1.3V64.2z"/>
			<path class="st0" d="M48.4,66.4c0,1.3-1,2.2-2.3,2.2c-1.3,0-2.3-0.9-2.3-2.2c0-1.3,1-2.3,2.3-2.3C47.4,64.1,48.4,65.1,48.4,66.4z
				 M47,66.4c0-0.6-0.4-1.1-1-1.1c-0.6,0-1,0.5-1,1.1c0,0.6,0.4,1.1,1,1.1C46.7,67.4,47,67,47,66.4z"/>
			<path class="st0" d="M53.3,65.6c-0.3-0.3-0.7-0.4-1-0.4c-0.2,0-0.3,0.1-0.3,0.2c0,0.1,0,0.2,0.2,0.3l0.7,0.3c0.7,0.2,1,0.7,1,1.3
				c0,0.8-0.7,1.4-1.7,1.4c-0.8,0-1.5-0.3-1.9-0.7l0.7-0.9c0.3,0.3,0.7,0.5,1.1,0.5c0.2,0,0.4-0.1,0.4-0.3c0-0.1,0-0.2-0.4-0.3
				l-0.6-0.2c-0.7-0.2-1-0.7-1-1.3c0-0.7,0.6-1.3,1.6-1.3c0.6,0,1.2,0.2,1.7,0.6L53.3,65.6z"/>
		</g>
		<g>
			<path class="st0" d="M5.9,72.7c-0.3-0.3-0.7-0.4-1-0.4c-0.2,0-0.3,0.1-0.3,0.2c0,0.1,0,0.2,0.2,0.3l0.7,0.2c0.7,0.2,1,0.7,1,1.3
				c0,0.8-0.7,1.4-1.7,1.4c-0.8,0-1.5-0.3-1.9-0.7l0.7-0.9c0.3,0.3,0.7,0.5,1.1,0.5c0.2,0,0.4-0.1,0.4-0.3c0-0.1-0.1-0.2-0.4-0.3
				l-0.6-0.2c-0.7-0.2-1-0.7-1-1.3c0-0.7,0.6-1.3,1.6-1.3c0.6,0,1.2,0.2,1.7,0.6L5.9,72.7z"/>
			<path class="st0" d="M10.4,75.7H9.2v-4.3h1.6c1.1,0,1.7,0.7,1.7,1.5c0,0.9-0.6,1.6-1.7,1.6h-0.4V75.7z M10.7,72.4h-0.3v1h0.3
				c0.3,0,0.6-0.1,0.6-0.5C11.2,72.5,11,72.4,10.7,72.4z"/>
			<path class="st0" d="M18.4,72.4h-2.2v0.5h1.1v1.1h-1.1v0.5h2.2v1.1h-3.5v-4.3h3.5V72.4z"/>
			<path class="st0" d="M22,73.5c0,0.6,0.4,1.1,1,1.1c0.4,0,0.8-0.3,0.9-0.7h1.4C25,75,24.1,75.7,23,75.7c-1.3,0-2.3-0.9-2.3-2.2
				c0-1.3,1-2.2,2.3-2.2c1.2,0,2.1,0.7,2.3,1.8h-1.4c-0.1-0.4-0.4-0.6-0.9-0.6C22.4,72.4,22,72.9,22,73.5z"/>
			<path class="st0" d="M31.1,72.5h-1.2v3.2h-1.3v-3.2h-1.2v-1.1l3.7,0V72.5z"/>
			<path class="st0" d="M35.6,75.7l-0.2-0.7h-1.1l-0.2,0.7h-1.3l1.3-4.3h1.6l1.3,4.3H35.6z M34.8,72.8L34.8,72.8l-0.3,1.1h0.6
				L34.8,72.8z"/>
			<path class="st0" d="M40.3,73.5c0,0.6,0.4,1.1,1,1.1c0.4,0,0.8-0.3,0.9-0.7h1.4c-0.2,1.1-1.1,1.8-2.3,1.8c-1.3,0-2.3-0.9-2.3-2.3
				c0-1.3,1-2.2,2.3-2.2c1.2,0,2.1,0.7,2.3,1.8h-1.4c-0.1-0.4-0.4-0.6-0.9-0.6C40.6,72.4,40.3,72.9,40.3,73.5z"/>
			<path class="st0" d="M45.9,75.7v-4.3h1.2v3.2h1.8v1.1H45.9z"/>
			<path class="st0" d="M54.8,72.4h-2.2v0.5h1.1v1.1h-1.1v0.5h2.2v1.1h-3.5v-4.3h3.5V72.4z"/>
			<path class="st0" d="M59.9,72.7c-0.3-0.3-0.7-0.4-1-0.4c-0.2,0-0.3,0.1-0.3,0.2c0,0.1,0,0.2,0.2,0.3l0.7,0.2c0.7,0.2,1,0.7,1,1.3
				c0,0.8-0.7,1.4-1.7,1.4c-0.8,0-1.5-0.3-1.9-0.7l0.7-0.9c0.3,0.3,0.7,0.5,1.1,0.5c0.2,0,0.4-0.1,0.4-0.3c0-0.1-0.1-0.2-0.4-0.3
				l-0.6-0.2c-0.7-0.2-1-0.7-1-1.3c0-0.7,0.6-1.3,1.6-1.3c0.6,0,1.2,0.2,1.7,0.6L59.9,72.7z"/>
		</g>
	</g>
</g>
</svg>
