<svg xmlns="http://www.w3.org/2000/svg" viewBox="0 0 100.95 69.73"><defs><style>.cls-1{fill:#fff;}</style></defs><title>Fichier 1</title><g id="Calque_2" data-name="Calque 2"><g id="Calque_1-2" data-name="Calque 1"><path class="cls-1" d="M50.45,24.21A12.1,12.1,0,1,0,38.35,12.1a12.1,12.1,0,0,0,12.1,12.11Zm0-14.78a2.67,2.67,0,1,1-2.67,2.67,2.68,2.68,0,0,1,2.67-2.67Z"/><path class="cls-1" d="M64.12,39.94c-.06-.84-.25-5.44-6.73-7.53-6.26-2-16.34-5-16.34-5s-1.69-.45-1.94-1.8,1.66-2.45,2-2.62l.22-.11-.11-.18-.3.14a7.63,7.63,0,0,0-4,7.45c.06.83.25,5.44,6.73,7.53,6.26,2,16.34,5,16.34,5s1.63.51,2,1.79c.47,1.66-1.91,3-2.39,3.23l-.49.24.13.18.49-.24a8,8,0,0,0,4.47-8.07Z"/><path class="cls-1" d="M4,55.28h6.28v.21a5.05,5.05,0,0,1-5.1,4.89,5,5,0,1,1-.05-10,5,5,0,0,1,4.67,3H7.66A3.08,3.08,0,0,0,5.09,52a3.34,3.34,0,1,0,.09,6.69A3.17,3.17,0,0,0,8,56.94H4Z"/><path class="cls-1" d="M17.35,55.38a3.25,3.25,0,1,1,3.25,3.33A3.3,3.3,0,0,1,17.35,55.38Zm-1.78,0a5,5,0,1,0,5-5A5,5,0,0,0,15.57,55.39Z"/><path class="cls-1" d="M33.52,56h.94c1.56,0,1.76.9,1.76,1.29,0,1.27-1.45,1.27-1.79,1.27h-.9Zm-1.62,4.21h2.58A4.66,4.66,0,0,0,37,59.61a2.71,2.71,0,0,0,1.2-2.29,2.33,2.33,0,0,0-1.66-2.4,2,2,0,0,0,1.08-1.83,2.52,2.52,0,0,0-.82-1.8,4.15,4.15,0,0,0-3-.74h-1.9Zm1.62-8h.74c1,0,1.38.47,1.38,1,0,1-1.12,1-1.54,1h-.59Z"/><path class="cls-1" d="M45.57,50.55h5.18v1.67H47.36v2.35h3.25v1.66H47.36v2.28h3.39v1.66H45.57Z"/><path class="cls-1" d="M58.23,50.55H60v8h2.94v1.66H58.23Z"/><path class="cls-1" d="M70,50.55h1.78v9.63H70Z"/><path class="cls-1" d="M79.75,50.55h2l4,7h0v-7h1.78v9.63h-2l-4-7h0v7H79.75Z"/><path class="cls-1" d="M94.7,57.42a3.08,3.08,0,0,0,3.13,3,3,3,0,0,0,3.12-3.08,3.09,3.09,0,0,0-2.52-3c-1-.32-1.6-.51-1.6-1.34a1,1,0,0,1,1-1A1,1,0,0,1,98.9,53.1h1.82a2.83,2.83,0,0,0-2.85-2.75A2.73,2.73,0,0,0,95,53.1a2.81,2.81,0,0,0,2.29,2.77c1.2.46,1.84.64,1.84,1.62a1.3,1.3,0,0,1-2.6-.08Z"/><path class="cls-1" d="M21.69,66.43a2.77,2.77,0,1,1,2.76,2.72A2.78,2.78,0,0,1,21.69,66.43Zm-.65,0a3.41,3.41,0,1,0,3.41-3.37A3.4,3.4,0,0,0,21,66.43Z"/><path class="cls-1" d="M.07,63.18H.72v5.87H3.38v.58H.07Z"/><path class="cls-1" d="M4.4,63.18H5.1L4.22,65.1H3.63Z"/><path class="cls-1" d="M7.54,63.18h3.53v.59H8.19v2.32H11v.58H8.19v2.38h2.88v.58H7.54ZM10,61.37l.28.52-1.73.93-.29-.5Z"/><path class="cls-1" d="M19.6,67.92a3.41,3.41,0,0,1-3,1.8,3.33,3.33,0,1,1,2.95-4.91h-.72a2.74,2.74,0,0,0-2.24-1.17,2.75,2.75,0,1,0,2.27,4.28Z"/><path class="cls-1" d="M30,63.18h.65v5.87H33.3v.58H30Z"/><path class="cls-1" d="M35.53,63.18h3.53v.59H36.18v2.32H39v.58H36.18v2.38h2.89v.58H35.53Z"/><path class="cls-1" d="M44.48,63.77h.93a3.6,3.6,0,0,1,2.13.49,2.66,2.66,0,0,1,1.1,2.14,2.72,2.72,0,0,1-1,2.12,3.72,3.72,0,0,1-2.22.52h-.93Zm-.65,5.86h1.88a4,4,0,0,0,2.1-.53,3.21,3.21,0,0,0,0-5.38,4,4,0,0,0-2.1-.54H43.84Z"/><path class="cls-1" d="M51.8,63.18h3.53v.59H52.45v2.32h2.79v.58H52.45v2.38h2.88v.58H51.8Z"/><path class="cls-1" d="M60,63.18h.64v5.87h2.67v.58H60Z"/><path class="cls-1" d="M64.49,63.18h.7L64.3,65.1h-.58Z"/><path class="cls-1" d="M67.72,63.19h.64v6.45h-.64Z"/><path class="cls-1" d="M71.69,63.19h1L75,68.67l2.35-5.49h1v6.45h-.65V63.89h0L75.3,69.63h-.55l-2.39-5.75h0v5.75h-.64Z"/><path class="cls-1" d="M83.77,63.92l1.24,3H82.5Zm-3.12,5.72h.67l.94-2.17h3l.93,2.17h.7l-2.77-6.45H83.4Z"/><path class="cls-1" d="M95.26,66.65a3.39,3.39,0,0,1-3.41,3.08,3.44,3.44,0,0,1-3.46-3.34,3.4,3.4,0,0,1,3.45-3.33,3.36,3.36,0,0,1,3,1.83h-.75a2.69,2.69,0,0,0-2.29-1.25,2.76,2.76,0,1,0,0,5.51,2.73,2.73,0,0,0,2.61-1.91h-3.6v-.58Z"/><path class="cls-1" d="M97.35,63.19h3.53v.58H98v2.32h2.79v.58H98v2.38h2.88v.58H97.35Z"/></g></g></svg>